<svg width="18" height="18" viewBox="0 0 18 18" fill="none" xmlns="http://www.w3.org/2000/svg">
<path d="M9 18C13.9706 18 18 13.9706 18 9C18 4.02944 13.9706 0 9 0C4.02944 0 0 4.02944 0 9C0 13.9706 4.02944 18 9 18Z" fill="#F1A33B"/>
<path d="M8.99995 15.8181C12.7655 15.8181 15.818 12.7656 15.818 9.00007C15.818 5.23456 12.7655 2.18201 8.99995 2.18201C5.23444 2.18201 2.18188 5.23456 2.18188 9.00007C2.18188 12.7656 5.23444 15.8181 8.99995 15.8181Z" fill="black"/>
<path d="M12.7818 8.78394C12.8678 8.83316 12.9393 8.90424 12.989 8.98998C13.0388 9.07571 13.0649 9.17307 13.0649 9.27219C13.0649 9.37131 13.0388 9.46866 12.989 9.5544C12.9393 9.64014 12.8678 9.71122 12.7818 9.76044L6.8412 13.1551C6.7556 13.2045 6.6585 13.2305 6.55967 13.2305C6.46083 13.2304 6.36376 13.2044 6.27821 13.1548C6.19267 13.1053 6.12168 13.0342 6.07239 12.9485C6.0231 12.8629 5.99725 12.7657 5.99745 12.6669L5.99745 5.87806C5.99725 5.77923 6.0231 5.68209 6.07239 5.59642C6.12168 5.51076 6.19267 5.43959 6.27821 5.39009C6.36376 5.34059 6.46083 5.3145 6.55967 5.31445C6.6585 5.3144 6.7556 5.3404 6.8412 5.38981L12.7818 8.78394Z" fill="#F1A33B"/>
</svg>
