<svg width="53" height="24" viewBox="0 0 53 24" fill="none" xmlns="http://www.w3.org/2000/svg">
<rect y="3" width="53" height="19" rx="8" fill="#F1A33B"/>
<path d="M8 6V18L20 12L8 6Z" fill="black"/>
<path d="M27.6143 13.2031C27.6143 13.0371 27.5882 12.8906 27.5361 12.7637C27.4873 12.6335 27.3994 12.5163 27.2725 12.4121C27.1488 12.3079 26.9762 12.2087 26.7549 12.1143C26.5368 12.0199 26.2601 11.9238 25.9248 11.8262C25.5732 11.722 25.2559 11.6064 24.9727 11.4795C24.6895 11.3493 24.4469 11.2012 24.2451 11.0352C24.0433 10.8691 23.8887 10.6787 23.7812 10.4639C23.6738 10.249 23.6201 10.0033 23.6201 9.72656C23.6201 9.44987 23.6771 9.19434 23.791 8.95996C23.9049 8.72559 24.0677 8.52214 24.2793 8.34961C24.4941 8.17383 24.7497 8.03711 25.0459 7.93945C25.3421 7.8418 25.6725 7.79297 26.0371 7.79297C26.571 7.79297 27.0234 7.89551 27.3945 8.10059C27.7689 8.30241 28.0537 8.56771 28.249 8.89648C28.4443 9.22201 28.542 9.57031 28.542 9.94141H27.6045C27.6045 9.67448 27.5475 9.43848 27.4336 9.2334C27.3197 9.02507 27.1471 8.8623 26.916 8.74512C26.6849 8.62467 26.3919 8.56445 26.0371 8.56445C25.7018 8.56445 25.4251 8.61491 25.207 8.71582C24.9889 8.81673 24.8262 8.95345 24.7188 9.12598C24.6146 9.2985 24.5625 9.49544 24.5625 9.7168C24.5625 9.86654 24.5934 10.0033 24.6553 10.127C24.7204 10.2474 24.8197 10.3597 24.9531 10.4639C25.0898 10.568 25.2624 10.6641 25.4707 10.752C25.6823 10.8398 25.9346 10.9245 26.2275 11.0059C26.6312 11.1198 26.9795 11.2467 27.2725 11.3867C27.5654 11.5267 27.8063 11.6846 27.9951 11.8604C28.1872 12.0329 28.3288 12.2298 28.4199 12.4512C28.5143 12.6693 28.5615 12.9167 28.5615 13.1934C28.5615 13.4831 28.5029 13.7451 28.3857 13.9795C28.2686 14.2139 28.1009 14.4141 27.8828 14.5801C27.6647 14.7461 27.4027 14.8747 27.0967 14.9658C26.7939 15.0537 26.4554 15.0977 26.0811 15.0977C25.7523 15.0977 25.4284 15.0521 25.1094 14.9609C24.7936 14.8698 24.5055 14.7331 24.2451 14.5508C23.988 14.3685 23.7812 14.1439 23.625 13.877C23.472 13.6068 23.3955 13.2943 23.3955 12.9395H24.333C24.333 13.1836 24.3802 13.3936 24.4746 13.5693C24.569 13.7419 24.6976 13.8851 24.8604 13.999C25.0264 14.113 25.2135 14.1976 25.4219 14.2529C25.6335 14.305 25.8532 14.3311 26.0811 14.3311C26.4098 14.3311 26.6882 14.2855 26.916 14.1943C27.1439 14.1032 27.3164 13.973 27.4336 13.8037C27.554 13.6344 27.6143 13.4342 27.6143 13.2031ZM31.8379 9.7168V10.4102H28.9814V9.7168H31.8379ZM29.9482 8.43262H30.8516V13.6914C30.8516 13.8704 30.8792 14.0055 30.9346 14.0967C30.9899 14.1878 31.0615 14.248 31.1494 14.2773C31.2373 14.3066 31.3317 14.3213 31.4326 14.3213C31.5075 14.3213 31.5856 14.3148 31.667 14.3018C31.7516 14.2855 31.8151 14.2725 31.8574 14.2627L31.8623 15C31.7907 15.0228 31.6963 15.0439 31.5791 15.0635C31.4652 15.0863 31.3268 15.0977 31.1641 15.0977C30.9427 15.0977 30.7393 15.0537 30.5537 14.9658C30.3682 14.8779 30.2201 14.7314 30.1094 14.5264C30.002 14.318 29.9482 14.0381 29.9482 13.6865V8.43262ZM36.0127 14.0967V11.377C36.0127 11.1686 35.9704 10.988 35.8857 10.835C35.8044 10.6787 35.6807 10.5583 35.5146 10.4736C35.3486 10.389 35.1436 10.3467 34.8994 10.3467C34.6715 10.3467 34.4714 10.3857 34.2988 10.4639C34.1296 10.542 33.9961 10.6445 33.8984 10.7715C33.804 10.8984 33.7568 11.0352 33.7568 11.1816H32.8535C32.8535 10.9928 32.9023 10.8057 33 10.6201C33.0977 10.4346 33.2376 10.2669 33.4199 10.1172C33.6055 9.96419 33.8268 9.84375 34.084 9.75586C34.3444 9.66471 34.6341 9.61914 34.9531 9.61914C35.3372 9.61914 35.6758 9.68424 35.9688 9.81445C36.265 9.94466 36.4961 10.1416 36.6621 10.4053C36.8314 10.6657 36.916 10.9928 36.916 11.3867V13.8477C36.916 14.0234 36.9307 14.2106 36.96 14.4092C36.9925 14.6077 37.0397 14.7786 37.1016 14.9219V15H36.1592C36.1136 14.8958 36.0778 14.7575 36.0518 14.585C36.0257 14.4092 36.0127 14.2464 36.0127 14.0967ZM36.1689 11.7969L36.1787 12.4316H35.2656C35.0085 12.4316 34.779 12.4528 34.5771 12.4951C34.3753 12.5342 34.2061 12.5944 34.0693 12.6758C33.9326 12.7572 33.8285 12.8597 33.7568 12.9834C33.6852 13.1038 33.6494 13.2454 33.6494 13.4082C33.6494 13.5742 33.6868 13.7256 33.7617 13.8623C33.8366 13.999 33.9489 14.1081 34.0986 14.1895C34.2516 14.2676 34.4388 14.3066 34.6602 14.3066C34.9368 14.3066 35.181 14.248 35.3926 14.1309C35.6042 14.0137 35.7718 13.8704 35.8955 13.7012C36.0225 13.5319 36.0908 13.3675 36.1006 13.208L36.4863 13.6426C36.4635 13.7793 36.4017 13.9307 36.3008 14.0967C36.1999 14.2627 36.0648 14.4222 35.8955 14.5752C35.7295 14.7249 35.5309 14.8503 35.2998 14.9512C35.0719 15.0488 34.8148 15.0977 34.5283 15.0977C34.1702 15.0977 33.8561 15.0277 33.5859 14.8877C33.319 14.7477 33.1107 14.5605 32.9609 14.3262C32.8145 14.0885 32.7412 13.8232 32.7412 13.5303C32.7412 13.2471 32.7965 12.998 32.9072 12.7832C33.0179 12.5651 33.1774 12.3844 33.3857 12.2412C33.5941 12.0947 33.8447 11.984 34.1377 11.9092C34.4307 11.8343 34.7578 11.7969 35.1191 11.7969H36.1689ZM39.2402 10.5469V15H38.3369V9.7168H39.2158L39.2402 10.5469ZM40.8906 9.6875L40.8857 10.5273C40.8109 10.5111 40.7393 10.5013 40.6709 10.498C40.6058 10.4915 40.5309 10.4883 40.4463 10.4883C40.238 10.4883 40.054 10.5208 39.8945 10.5859C39.735 10.651 39.5999 10.7422 39.4893 10.8594C39.3786 10.9766 39.2907 11.1165 39.2256 11.2793C39.1637 11.4388 39.123 11.6146 39.1035 11.8066L38.8496 11.9531C38.8496 11.6341 38.8805 11.3346 38.9424 11.0547C39.0075 10.7747 39.1068 10.5273 39.2402 10.3125C39.3737 10.0944 39.543 9.92513 39.748 9.80469C39.9564 9.68099 40.2038 9.61914 40.4902 9.61914C40.5553 9.61914 40.6302 9.62728 40.7148 9.64355C40.7995 9.65658 40.8581 9.67122 40.8906 9.6875ZM44.1816 9.7168V10.4102H41.3252V9.7168H44.1816ZM42.292 8.43262H43.1953V13.6914C43.1953 13.8704 43.223 14.0055 43.2783 14.0967C43.3337 14.1878 43.4053 14.248 43.4932 14.2773C43.5811 14.3066 43.6755 14.3213 43.7764 14.3213C43.8512 14.3213 43.9294 14.3148 44.0107 14.3018C44.0954 14.2855 44.1589 14.2725 44.2012 14.2627L44.2061 15C44.1344 15.0228 44.04 15.0439 43.9229 15.0635C43.8089 15.0863 43.6706 15.0977 43.5078 15.0977C43.2865 15.0977 43.083 15.0537 42.8975 14.9658C42.7119 14.8779 42.5638 14.7314 42.4531 14.5264C42.3457 14.318 42.292 14.0381 42.292 13.6865V8.43262Z" fill="#29252D"/>
</svg>
