<svg width="53" height="19" viewBox="0 0 53 19" fill="none" xmlns="http://www.w3.org/2000/svg">
<rect width="53" height="19" rx="8" fill="#F1A33B"/>
<path d="M7 3H19V15H7V3Z" fill="black"/>
<path d="M29.6143 10.2031C29.6143 10.0371 29.5882 9.89062 29.5361 9.76367C29.4873 9.63346 29.3994 9.51628 29.2725 9.41211C29.1488 9.30794 28.9762 9.20866 28.7549 9.11426C28.5368 9.01986 28.2601 8.92383 27.9248 8.82617C27.5732 8.72201 27.2559 8.60645 26.9727 8.47949C26.6895 8.34928 26.4469 8.20117 26.2451 8.03516C26.0433 7.86914 25.8887 7.67871 25.7812 7.46387C25.6738 7.24902 25.6201 7.00326 25.6201 6.72656C25.6201 6.44987 25.6771 6.19434 25.791 5.95996C25.9049 5.72559 26.0677 5.52214 26.2793 5.34961C26.4941 5.17383 26.7497 5.03711 27.0459 4.93945C27.3421 4.8418 27.6725 4.79297 28.0371 4.79297C28.571 4.79297 29.0234 4.89551 29.3945 5.10059C29.7689 5.30241 30.0537 5.56771 30.249 5.89648C30.4443 6.22201 30.542 6.57031 30.542 6.94141H29.6045C29.6045 6.67448 29.5475 6.43848 29.4336 6.2334C29.3197 6.02507 29.1471 5.8623 28.916 5.74512C28.6849 5.62467 28.3919 5.56445 28.0371 5.56445C27.7018 5.56445 27.4251 5.61491 27.207 5.71582C26.9889 5.81673 26.8262 5.95345 26.7188 6.12598C26.6146 6.2985 26.5625 6.49544 26.5625 6.7168C26.5625 6.86654 26.5934 7.00326 26.6553 7.12695C26.7204 7.2474 26.8197 7.3597 26.9531 7.46387C27.0898 7.56803 27.2624 7.66406 27.4707 7.75195C27.6823 7.83984 27.9346 7.92448 28.2275 8.00586C28.6312 8.11979 28.9795 8.24674 29.2725 8.38672C29.5654 8.52669 29.8063 8.68457 29.9951 8.86035C30.1872 9.03288 30.3288 9.22982 30.4199 9.45117C30.5143 9.66927 30.5615 9.91667 30.5615 10.1934C30.5615 10.4831 30.5029 10.7451 30.3857 10.9795C30.2686 11.2139 30.1009 11.4141 29.8828 11.5801C29.6647 11.7461 29.4027 11.8747 29.0967 11.9658C28.7939 12.0537 28.4554 12.0977 28.0811 12.0977C27.7523 12.0977 27.4284 12.0521 27.1094 11.9609C26.7936 11.8698 26.5055 11.7331 26.2451 11.5508C25.988 11.3685 25.7812 11.1439 25.625 10.877C25.472 10.6068 25.3955 10.2943 25.3955 9.93945H26.333C26.333 10.1836 26.3802 10.3936 26.4746 10.5693C26.569 10.7419 26.6976 10.8851 26.8604 10.999C27.0264 11.113 27.2135 11.1976 27.4219 11.2529C27.6335 11.305 27.8532 11.3311 28.0811 11.3311C28.4098 11.3311 28.6882 11.2855 28.916 11.1943C29.1439 11.1032 29.3164 10.973 29.4336 10.8037C29.554 10.6344 29.6143 10.4342 29.6143 10.2031ZM33.8379 6.7168V7.41016H30.9814V6.7168H33.8379ZM31.9482 5.43262H32.8516V10.6914C32.8516 10.8704 32.8792 11.0055 32.9346 11.0967C32.9899 11.1878 33.0615 11.248 33.1494 11.2773C33.2373 11.3066 33.3317 11.3213 33.4326 11.3213C33.5075 11.3213 33.5856 11.3148 33.667 11.3018C33.7516 11.2855 33.8151 11.2725 33.8574 11.2627L33.8623 12C33.7907 12.0228 33.6963 12.0439 33.5791 12.0635C33.4652 12.0863 33.3268 12.0977 33.1641 12.0977C32.9427 12.0977 32.7393 12.0537 32.5537 11.9658C32.3682 11.8779 32.2201 11.7314 32.1094 11.5264C32.002 11.318 31.9482 11.0381 31.9482 10.6865V5.43262ZM34.5605 9.41699V9.30469C34.5605 8.92383 34.6159 8.57064 34.7266 8.24512C34.8372 7.91634 34.9967 7.63151 35.2051 7.39062C35.4134 7.14648 35.6657 6.95768 35.9619 6.82422C36.2581 6.6875 36.5902 6.61914 36.958 6.61914C37.3291 6.61914 37.6628 6.6875 37.959 6.82422C38.2585 6.95768 38.5124 7.14648 38.7207 7.39062C38.9323 7.63151 39.0934 7.91634 39.2041 8.24512C39.3148 8.57064 39.3701 8.92383 39.3701 9.30469V9.41699C39.3701 9.79785 39.3148 10.151 39.2041 10.4766C39.0934 10.8021 38.9323 11.0869 38.7207 11.3311C38.5124 11.5719 38.2601 11.7607 37.9639 11.8975C37.6709 12.0309 37.3389 12.0977 36.9678 12.0977C36.5967 12.0977 36.263 12.0309 35.9668 11.8975C35.6706 11.7607 35.4167 11.5719 35.2051 11.3311C34.9967 11.0869 34.8372 10.8021 34.7266 10.4766C34.6159 10.151 34.5605 9.79785 34.5605 9.41699ZM35.4639 9.30469V9.41699C35.4639 9.68066 35.4948 9.92969 35.5566 10.1641C35.6185 10.3952 35.7113 10.6003 35.835 10.7793C35.9619 10.9583 36.1198 11.0999 36.3086 11.2041C36.4974 11.305 36.7171 11.3555 36.9678 11.3555C37.2152 11.3555 37.4316 11.305 37.6172 11.2041C37.806 11.0999 37.9622 10.9583 38.0859 10.7793C38.2096 10.6003 38.3024 10.3952 38.3643 10.1641C38.4294 9.92969 38.4619 9.68066 38.4619 9.41699V9.30469C38.4619 9.04427 38.4294 8.7985 38.3643 8.56738C38.3024 8.33301 38.208 8.1263 38.0811 7.94727C37.9574 7.76497 37.8011 7.62174 37.6123 7.51758C37.4268 7.41341 37.2087 7.36133 36.958 7.36133C36.7106 7.36133 36.4925 7.41341 36.3037 7.51758C36.1182 7.62174 35.9619 7.76497 35.835 7.94727C35.7113 8.1263 35.6185 8.33301 35.5566 8.56738C35.4948 8.7985 35.4639 9.04427 35.4639 9.30469ZM41.4062 7.73242V14.0312H40.498V6.7168H41.3281L41.4062 7.73242ZM44.9658 9.31445V9.41699C44.9658 9.80111 44.9202 10.1576 44.8291 10.4863C44.738 10.8118 44.6045 11.0951 44.4287 11.3359C44.2562 11.5768 44.043 11.764 43.7891 11.8975C43.5352 12.0309 43.2438 12.0977 42.915 12.0977C42.5798 12.0977 42.2835 12.0423 42.0264 11.9316C41.7692 11.821 41.5511 11.6598 41.3721 11.4482C41.193 11.2367 41.0498 10.9827 40.9424 10.6865C40.8382 10.3903 40.7666 10.0566 40.7275 9.68555V9.13867C40.7666 8.74805 40.8398 8.39811 40.9473 8.08887C41.0547 7.77962 41.1963 7.51595 41.3721 7.29785C41.5511 7.0765 41.7676 6.90885 42.0215 6.79492C42.2754 6.67773 42.5684 6.61914 42.9004 6.61914C43.2324 6.61914 43.527 6.68424 43.7842 6.81445C44.0413 6.94141 44.2578 7.1237 44.4336 7.36133C44.6094 7.59896 44.7412 7.88379 44.8291 8.21582C44.9202 8.5446 44.9658 8.91081 44.9658 9.31445ZM44.0576 9.41699V9.31445C44.0576 9.05078 44.0299 8.80339 43.9746 8.57227C43.9193 8.33789 43.833 8.13281 43.7158 7.95703C43.6019 7.77799 43.4554 7.63802 43.2764 7.53711C43.0973 7.43294 42.8841 7.38086 42.6367 7.38086C42.4089 7.38086 42.2103 7.41992 42.041 7.49805C41.875 7.57617 41.7334 7.68197 41.6162 7.81543C41.499 7.94564 41.403 8.09538 41.3281 8.26465C41.2565 8.43066 41.2028 8.60319 41.167 8.78223V10.0469C41.2321 10.2747 41.3232 10.4896 41.4404 10.6914C41.5576 10.89 41.7139 11.0511 41.9092 11.1748C42.1045 11.2952 42.3503 11.3555 42.6465 11.3555C42.8906 11.3555 43.1006 11.305 43.2764 11.2041C43.4554 11.0999 43.6019 10.9583 43.7158 10.7793C43.833 10.6003 43.9193 10.3952 43.9746 10.1641C44.0299 9.92969 44.0576 9.68066 44.0576 9.41699Z" fill="black"/>
</svg>
