<svg width="218" height="48" viewBox="0 0 218 48" fill="none" xmlns="http://www.w3.org/2000/svg">
<path d="M24 48C37.2548 48 48 37.2548 48 24C48 10.7452 37.2548 0 24 0C10.7452 0 0 10.7452 0 24C0 37.2548 10.7452 48 24 48Z" fill="#F1A33B"/>
<path d="M24 42.1816C34.0413 42.1816 42.1815 34.0415 42.1815 24.0001C42.1815 13.9587 34.0413 5.8186 24 5.8186C13.9586 5.8186 5.81848 13.9587 5.81848 24.0001C5.81848 34.0415 13.9586 42.1816 24 42.1816Z" fill="black"/>
<path d="M34.0844 23.424C34.3139 23.5552 34.5045 23.7447 34.6371 23.9734C34.7698 24.202 34.8396 24.4616 34.8396 24.726C34.8396 24.9903 34.7698 25.2499 34.6371 25.4785C34.5045 25.7072 34.3139 25.8967 34.0844 26.028L18.2429 35.0805C18.0147 35.2122 17.7558 35.2816 17.4922 35.2814C17.2286 35.2813 16.9698 35.2117 16.7417 35.0797C16.5135 34.9477 16.3242 34.7579 16.1928 34.5295C16.0614 34.3011 15.9924 34.042 15.9929 33.7785V15.675C15.9924 15.4114 16.0614 15.1524 16.1928 14.9239C16.3242 14.6955 16.5135 14.5057 16.7417 14.3737C16.9698 14.2417 17.2286 14.1721 17.4922 14.172C17.7558 14.1719 18.0147 14.2412 18.2429 14.373L34.0844 23.424Z" fill="#F1A33B"/>
<path d="M66.0227 35V11.7273H81.7045V15.7841H70.9432V21.3295H80.8977V25.3864H70.9432V30.9432H81.75V35H66.0227ZM88.5142 41.5455C87.9006 41.5455 87.3248 41.4962 86.7869 41.3977C86.2566 41.3068 85.8172 41.1894 85.4688 41.0455L86.5597 37.4318C87.1278 37.6061 87.6392 37.7008 88.0938 37.7159C88.5559 37.7311 88.9536 37.625 89.2869 37.3977C89.6278 37.1705 89.9044 36.7841 90.1165 36.2386L90.4006 35.5L84.1392 17.5455H89.2301L92.8438 30.3636H93.0256L96.6733 17.5455H101.798L95.0142 36.8864C94.6884 37.8258 94.2453 38.6439 93.6847 39.3409C93.1316 40.0455 92.4309 40.5871 91.5824 40.9659C90.7339 41.3523 89.7112 41.5455 88.5142 41.5455ZM111.668 35.3409C109.872 35.3409 108.327 34.9773 107.031 34.25C105.743 33.5152 104.751 32.4773 104.054 31.1364C103.357 29.7879 103.009 28.1932 103.009 26.3523C103.009 24.5568 103.357 22.9811 104.054 21.625C104.751 20.2689 105.732 19.2121 106.997 18.4545C108.27 17.697 109.762 17.3182 111.474 17.3182C112.626 17.3182 113.698 17.5038 114.69 17.875C115.69 18.2386 116.562 18.7879 117.304 19.5227C118.054 20.2576 118.637 21.1818 119.054 22.2955C119.471 23.4015 119.679 24.697 119.679 26.1818V27.5114H104.94V24.5114H115.122C115.122 23.8144 114.971 23.197 114.668 22.6591C114.365 22.1212 113.944 21.7008 113.406 21.3977C112.876 21.0871 112.259 20.9318 111.554 20.9318C110.819 20.9318 110.168 21.1023 109.599 21.4432C109.039 21.7765 108.599 22.2273 108.281 22.7955C107.963 23.3561 107.8 23.9811 107.793 24.6705V27.5227C107.793 28.3864 107.952 29.1326 108.27 29.7614C108.596 30.3902 109.054 30.875 109.645 31.2159C110.236 31.5568 110.937 31.7273 111.747 31.7273C112.285 31.7273 112.777 31.6515 113.224 31.5C113.671 31.3485 114.054 31.1212 114.372 30.8182C114.69 30.5152 114.933 30.1439 115.099 29.7045L119.577 30C119.349 31.0758 118.884 32.0152 118.179 32.8182C117.482 33.6136 116.58 34.2348 115.474 34.6818C114.376 35.1212 113.107 35.3409 111.668 35.3409ZM142.96 18.4205C142.869 17.5038 142.479 16.7917 141.79 16.2841C141.1 15.7765 140.165 15.5227 138.983 15.5227C138.18 15.5227 137.502 15.6364 136.949 15.8636C136.396 16.0833 135.972 16.3902 135.676 16.7841C135.388 17.178 135.244 17.625 135.244 18.125C135.229 18.5417 135.316 18.9053 135.506 19.2159C135.703 19.5265 135.972 19.7955 136.312 20.0227C136.653 20.2424 137.047 20.4356 137.494 20.6023C137.941 20.7614 138.419 20.8977 138.926 21.0114L141.017 21.5114C142.032 21.7386 142.964 22.0417 143.812 22.4205C144.661 22.7992 145.396 23.2652 146.017 23.8182C146.638 24.3712 147.119 25.0227 147.46 25.7727C147.809 26.5227 147.987 27.3826 147.994 28.3523C147.987 29.7765 147.623 31.0114 146.903 32.0568C146.191 33.0947 145.161 33.9015 143.812 34.4773C142.472 35.0455 140.854 35.3295 138.96 35.3295C137.081 35.3295 135.445 35.0417 134.051 34.4659C132.665 33.8902 131.581 33.0379 130.801 31.9091C130.028 30.7727 129.623 29.3674 129.585 27.6932H134.347C134.4 28.4735 134.623 29.125 135.017 29.6477C135.419 30.1629 135.953 30.553 136.619 30.8182C137.294 31.0758 138.055 31.2045 138.903 31.2045C139.737 31.2045 140.46 31.0833 141.074 30.8409C141.695 30.5985 142.176 30.2614 142.517 29.8295C142.858 29.3977 143.028 28.9015 143.028 28.3409C143.028 27.8182 142.873 27.3788 142.562 27.0227C142.259 26.6667 141.813 26.3636 141.222 26.1136C140.638 25.8636 139.922 25.6364 139.074 25.4318L136.54 24.7955C134.578 24.3182 133.028 23.572 131.892 22.5568C130.756 21.5417 130.191 20.1742 130.199 18.4545C130.191 17.0455 130.566 15.8144 131.324 14.7614C132.089 13.7083 133.138 12.8864 134.472 12.2955C135.805 11.7045 137.32 11.4091 139.017 11.4091C140.744 11.4091 142.252 11.7045 143.54 12.2955C144.835 12.8864 145.843 13.7083 146.562 14.7614C147.282 15.8144 147.653 17.0341 147.676 18.4205H142.96ZM156.19 35.3295C155.077 35.3295 154.084 35.1364 153.213 34.75C152.342 34.3561 151.652 33.7765 151.145 33.0114C150.645 32.2386 150.395 31.2765 150.395 30.125C150.395 29.1553 150.573 28.3409 150.929 27.6818C151.285 27.0227 151.77 26.4924 152.384 26.0909C152.997 25.6894 153.694 25.3864 154.474 25.1818C155.262 24.9773 156.088 24.8333 156.952 24.75C157.967 24.6439 158.785 24.5455 159.406 24.4545C160.027 24.3561 160.478 24.2121 160.759 24.0227C161.039 23.8333 161.179 23.553 161.179 23.1818V23.1136C161.179 22.3939 160.952 21.8371 160.497 21.4432C160.05 21.0492 159.414 20.8523 158.588 20.8523C157.717 20.8523 157.024 21.0455 156.509 21.4318C155.993 21.8106 155.652 22.2879 155.486 22.8636L151.009 22.5C151.236 21.4394 151.683 20.5227 152.349 19.75C153.016 18.9697 153.876 18.3712 154.929 17.9545C155.99 17.5303 157.217 17.3182 158.611 17.3182C159.58 17.3182 160.509 17.4318 161.395 17.6591C162.289 17.8864 163.08 18.2386 163.77 18.7159C164.467 19.1932 165.016 19.8068 165.418 20.5568C165.819 21.2992 166.02 22.1894 166.02 23.2273V35H161.429V32.5795H161.293C161.012 33.125 160.637 33.6061 160.168 34.0227C159.698 34.4318 159.134 34.7538 158.474 34.9886C157.815 35.2159 157.054 35.3295 156.19 35.3295ZM157.577 31.9886C158.289 31.9886 158.918 31.8485 159.463 31.5682C160.009 31.2803 160.437 30.8939 160.747 30.4091C161.058 29.9242 161.213 29.375 161.213 28.7614V26.9091C161.062 27.0076 160.853 27.0985 160.588 27.1818C160.33 27.2576 160.039 27.3295 159.713 27.3977C159.387 27.4583 159.062 27.5152 158.736 27.5682C158.41 27.6136 158.115 27.6553 157.849 27.6932C157.281 27.7765 156.785 27.9091 156.361 28.0909C155.937 28.2727 155.607 28.5189 155.372 28.8295C155.137 29.1326 155.02 29.5114 155.02 29.9659C155.02 30.625 155.259 31.1288 155.736 31.4773C156.221 31.8182 156.834 31.9886 157.577 31.9886ZM185.423 17.5455L179.321 35H173.866L167.764 17.5455H172.878L176.503 30.0341H176.685L180.298 17.5455H185.423ZM195.293 35.3409C193.497 35.3409 191.952 34.9773 190.656 34.25C189.368 33.5152 188.376 32.4773 187.679 31.1364C186.982 29.7879 186.634 28.1932 186.634 26.3523C186.634 24.5568 186.982 22.9811 187.679 21.625C188.376 20.2689 189.357 19.2121 190.622 18.4545C191.895 17.697 193.387 17.3182 195.099 17.3182C196.251 17.3182 197.323 17.5038 198.315 17.875C199.315 18.2386 200.187 18.7879 200.929 19.5227C201.679 20.2576 202.262 21.1818 202.679 22.2955C203.096 23.4015 203.304 24.697 203.304 26.1818V27.5114H188.565V24.5114H198.747C198.747 23.8144 198.596 23.197 198.293 22.6591C197.99 22.1212 197.569 21.7008 197.031 21.3977C196.501 21.0871 195.884 20.9318 195.179 20.9318C194.444 20.9318 193.793 21.1023 193.224 21.4432C192.664 21.7765 192.224 22.2273 191.906 22.7955C191.588 23.3561 191.425 23.9811 191.418 24.6705V27.5227C191.418 28.3864 191.577 29.1326 191.895 29.7614C192.221 30.3902 192.679 30.875 193.27 31.2159C193.861 31.5568 194.562 31.7273 195.372 31.7273C195.91 31.7273 196.402 31.6515 196.849 31.5C197.296 31.3485 197.679 31.1212 197.997 30.8182C198.315 30.5152 198.558 30.1439 198.724 29.7045L203.202 30C202.974 31.0758 202.509 32.0152 201.804 32.8182C201.107 33.6136 200.205 34.2348 199.099 34.6818C198.001 35.1212 196.732 35.3409 195.293 35.3409ZM206.463 35V17.5455H211.156V20.5909H211.338C211.656 19.5076 212.19 18.6894 212.94 18.1364C213.69 17.5758 214.554 17.2955 215.531 17.2955C215.774 17.2955 216.035 17.3106 216.315 17.3409C216.596 17.3712 216.842 17.4129 217.054 17.4659V21.7614C216.827 21.6932 216.512 21.6326 216.111 21.5795C215.709 21.5265 215.342 21.5 215.009 21.5C214.296 21.5 213.66 21.6553 213.099 21.9659C212.546 22.2689 212.107 22.6932 211.781 23.2386C211.463 23.7841 211.304 24.4129 211.304 25.125V35H206.463Z" fill="black"/>
</svg>
