<svg width="26" height="26" viewBox="0 0 26 26" fill="none" xmlns="http://www.w3.org/2000/svg">
<path d="M21.875 4.79169C20.7834 3.57496 19.4919 2.6291 18.0015 1.95486C16.4104 1.23505 14.7428 0.875 13 0.875C9.61755 0.875 6.74804 2.05018 4.39911 4.39911C2.05018 6.74804 0.875 9.61755 0.875 13C0.875 16.3825 2.05018 19.252 4.39911 21.6009C6.74804 23.9498 9.61755 25.125 13 25.125C15.7776 25.125 18.2547 24.2784 20.4268 22.5861C22.5985 20.8942 24.0389 18.7082 24.7459 16.0319L24.7873 15.875H24.625H21.475H21.3861L21.3569 15.959C20.7404 17.7345 19.6689 19.1632 18.1402 20.2481C16.6116 21.3329 14.8994 21.875 13 21.875C10.5328 21.875 8.43968 21.0129 6.71339 19.2866C4.9871 17.5603 4.125 15.4672 4.125 13C4.125 10.5328 4.9871 8.43968 6.71339 6.71339C8.43968 4.9871 10.5328 4.125 13 4.125C14.6034 4.125 16.0881 4.5194 17.4563 5.30829C18.7621 6.06118 19.8035 7.08289 20.5817 8.375H14.5H14.375V8.5V11.5V11.625H14.5H25H25.125V11.5V1V0.875H25H22H21.875V1V4.79169Z" fill="black" stroke="black" stroke-width="0.25"/>
</svg>
